:version 1.10
:name ASF
:units
  mass 1
  length 1
  angle deg
:documentation
  ASF file generated by Kaydara
:root
  axis xyz
  order  tx ty tz rx ry rz
  position 0 0 0
  orientation 0 0 0
:bonedata
  begin
    id 1
    name RightUpLegDummy
    direction -1 2.30186e-007 8.31532e-007
    length 4.04083
    axis 0 0 0 xyz
  end
  begin
    id 2
    name RightUpLeg
    direction -0.000919234 -0.999985 0.00544864
    length 17.4221
    axis -3.80308 -0.00076134 -0.0523649 xyz
    dof rx ry rz
  end
  begin
    id 3
    name RightLeg
    direction -0.000919271 -0.999984 -0.00555045
    length 17.1239
    axis 4.00314 0.0181274 -0.183583 xyz
    dof rx ry rz
  end
  begin
    id 4
    name RightFoot
    direction -2.57843e-005 -4.04509e-007 1
    length 6.72091
    axis 8.18909e-005 -0.122003 -0.403008 xyz
    dof rx ry rz
  end
  begin
    id 5
    name RightToes
    direction 0.00116825 -0.014069 0.9999
    length 3.85082
    axis 0.000514414 0.540638 -0.356797 xyz
    dof rx ry rz
  end
  begin
    id 6
    name SpineDummy
    direction 0.0168869 0.966876 -0.254689
    length 6.99894
    axis 0 0 0 xyz
  end
  begin
    id 7
    name Spine
    direction -0.0132008 0.999903 0.00446247
    length 11.1999
    axis -0.00148109 0.00725429 0.756411 xyz
    dof rx ry rz
  end
  begin
    id 8
    name Spine1
    direction 0 0 0
    length 0
    axis -0.000934958 0.0245693 1.46543 xyz
    dof rx ry rz
  end
  begin
    id 9
    name HEadDummy
    direction -0.0255732 0.999672 0.00128215
    length 3.43865
    axis -0.000934958 0.0245693 1.46543 xyz
  end
  begin
    id 10
    name HEad
    direction -0.0472656 0.980052 0.19304
    length 5.12695
    axis -0.000934954 0.0245693 1.46543 xyz
    dof rx ry rz
  end
  begin
    id 11
    name LeftShoulder1Dummy
    direction 0.953098 0.301717 -0.023914
    length 3.68488
    axis -0.000934958 0.0245693 1.46543 xyz
  end
  begin
    id 12
    name LeftShoulder1
    direction 0.962466 0.271167 0.0112566
    length 3.13809
    axis -0.000934958 0.0245693 1.46543 xyz
    dof rx ry rz
  end
  begin
    id 13
    name LeftArm
    direction 0.999943 0.00455037 -0.00961766
    length 11.3419
    axis -23.1648 0.685459 1.22814 xyz
    dof rx ry rz
  end
  begin
    id 14
    name LeftForeArm
    direction 0.999332 0.0131969 0.0340885
    length 8.70632
    axis -9.90633 0.618216 0.0826942 xyz
    dof rx ry rz
  end
  begin
    id 15
    name LeftHand
    direction 0.994373 -0.0366703 0.0993905
    length 5.32135
    axis 0.00675269 0.680415 0.445699 xyz
    dof rx ry rz
  end
  begin
    id 16
    name RightShoulderDummy
    direction -0.967298 0.252589 -0.0230903
    length 3.68488
    axis -0.000934958 0.0245693 1.46543 xyz
  end
  begin
    id 17
    name RightShoulder
    direction -0.975062 0.221602 0.0120823
    length 3.13809
    axis 0.216257 0.0246515 1.45863 xyz
    dof rx ry rz
  end
  begin
    id 18
    name RightArm
    direction -0.99886 -0.00851186 -0.0469687
    length 10.3947
    axis -23.196 0.23503 -0.532632 xyz
    dof rx ry rz
  end
  begin
    id 19
    name RightForeArm
    direction -0.99909 0.00114866 0.0426317
    length 8.68355
    axis -9.91764 -0.134943 0.610517 xyz
    dof rx ry rz
  end
  begin
    id 20
    name RightHand
    direction -0.992888 -0.0489538 0.10852
    length 5.28593
    axis -0.00275396 -0.197403 0.246414 xyz
    dof rx ry rz
  end
  begin
    id 21
    name LeftUpLegDummy
    direction 1 -2.30186e-007 -8.31532e-007
    length 4.04083
    axis 0 0 0 xyz
  end
  begin
    id 22
    name LeftUpLeg
    direction -0.000920097 -1 2.79241e-006
    length 17.4221
    axis -3.48782 0.00143434 -0.0532288 xyz
    dof rx ry rz
  end
  begin
    id 23
    name LeftLeg
    direction -0.000920097 -1 2.7912e-006
    length 17.1239
    axis 3.68162 -0.00806512 -0.0529896 xyz
    dof rx ry rz
  end
  begin
    id 24
    name LeftFoot
    direction -2.57845e-005 -3.987e-007 1
    length 6.72091
    axis 3.02372e-005 -0.00147829 -0.214229 xyz
    dof rx ry rz
  end
  begin
    id 25
    name LeftToes
    direction 0.00813577 -0.00488255 0.999955
    length 3.85048
    axis 3.89895e-005 -0.0014783 -0.214229 xyz
    dof rx ry rz
  end
:hierarchy
  begin
    root RightUpLegDummy SpineDummy LeftUpLegDummy
    RightUpLegDummy RightUpLeg
    RightUpLeg RightLeg
    RightLeg RightFoot
    RightFoot RightToes
    SpineDummy Spine
    Spine Spine1
    Spine1 HEadDummy LeftShoulder1Dummy RightShoulderDummy
    HEadDummy HEad
    LeftShoulder1Dummy LeftShoulder1
    LeftShoulder1 LeftArm
    LeftArm LeftForeArm
    LeftForeArm LeftHand
    RightShoulderDummy RightShoulder
    RightShoulder RightArm
    RightArm RightForeArm
    RightForeArm RightHand
    LeftUpLegDummy LeftUpLeg
    LeftUpLeg LeftLeg
    LeftLeg LeftFoot
    LeftFoot LeftToes
  end

:SAMPLES-PER-SECOND 30
:FULLY-SPECIFIED
:DEGREES
111
root  -39.0332 34.155 5.57761 174.663 81.7494 162.956
RightUpLeg  -4.72067 -14.6242 -1.79899
RightLeg  14.59 -8.55386 -1.63971
RightFoot  -7.98939 0.0602972 1.46023
RightToes  -22.3363 -0.0948622 -0.195337
Spine  -0.791267 1.00875 1.80256
Spine1  -1.53718 2.39786 4.14406
HEad  -67.8745 7.3904 9.57442
LeftShoulder1  -1.94126e-019 -3.10601e-018 -2.51263e-017
LeftArm  -17.9183 29.2329 -81.329
LeftForeArm  36.1351 -12.657 -2.13846
LeftHand  -0.476631 -1.90597 7.77151
RightShoulder  -4.96962e-017 0 -2.36833e-017
RightArm  -23.0305 -15.8086 74.7884
RightForeArm  51.3405 17.135 1.22364
RightHand  -0.340838 -1.09773 -9.14368
LeftUpLeg  -27.5977 1.39471 -2.52986
LeftLeg  10.3572 15.2792 1.76515
LeftFoot  13.6285 -0.450427 3.92966
LeftToes  -26.3838 1.49739e-006 1.00523e-007
112
root  -38.3867 34.085 5.21334 167.208 83.0071 155.763
RightUpLeg  -4.32628 -13.9565 -3.32424
RightLeg  16.3161 -7.86841 -1.75625
RightFoot  -8.21498 0.0581247 1.40234
RightToes  -24.7513 -0.109498 -0.213883
Spine  -0.854555 1.00573 1.39504
Spine1  -1.69321 2.40052 3.3296
HEad  -67.6543 7.87173 9.5812
LeftShoulder1  -1.94126e-019 -3.10601e-018 -2.51263e-017
LeftArm  -17.0925 28.9867 -80.9123
LeftForeArm  35.5428 -13.0155 -2.16845
LeftHand  -0.48679 -2.04047 7.79943
RightShoulder  -4.96962e-017 0 -2.36833e-017
RightArm  -23.8571 -15.9246 75.2056
RightForeArm  52.7321 15.9488 1.12575
RightHand  -0.350546 -1.17665 -9.57545
LeftUpLeg  -26.8308 1.08205 -3.05558
LeftLeg  11.6976 16.51 2.29012
LeftFoot  14.0109 -0.517946 4.37473
LeftToes  -27.1602 1.49739e-006 1.00523e-007
113
root  -37.7352 34.1009 4.80103 156.227 83.8521 145.181
RightUpLeg  -4.17335 -12.7791 -5.05427
RightLeg  18.691 -7.76882 -2.07524
RightFoot  -7.52056 0.0468556 1.30683
RightToes  -28.163 -0.131478 -0.238998
Spine  -0.817474 0.988676 0.878566
Spine1  -1.66177 2.35672 2.29544
HEad  -67.9139 8.10119 9.55472
LeftShoulder1  -1.94126e-019 -3.10601e-018 -2.51263e-017
LeftArm  -16.5383 27.8852 -80.5202
LeftForeArm  35.6494 -13.0831 -2.19147
LeftHand  -0.485071 -2.01315 7.79925
RightShoulder  -4.96962e-017 0 -2.36833e-017
RightArm  -26.2936 -16.0215 75.7713
RightForeArm  54.4145 14.5452 1.21175
RightHand  -0.343003 -1.49987 -10.1084
LeftUpLeg  -26.1026 0.552495 -3.9241
LeftLeg  13.7258 17.8509 3.1059
LeftFoot  12.4603 -0.447738 4.26122
LeftToes  -24.0345 1.49739e-006 1.00523e-007
114
root  -37.0661 34.203 4.37222 144.629 84.4338 134.049
RightUpLeg  -4.36527 -12.0373 -6.68413
RightLeg  21.6912 -7.45744 -2.41734
RightFoot  -5.6907 0.0215504 1.02977
RightToes  -33.4153 -0.168133 -0.274989
Spine  -0.780643 1.03725 0.471729
Spine1  -1.61065 2.38455 1.51785
HEad  -68.1644 7.89479 8.98392
LeftShoulder1  -1.94126e-019 -3.10601e-018 -2.51263e-017
LeftArm  -16.0064 26.192 -80.5073
LeftForeArm  36.2379 -12.9072 -2.19779
LeftHand  -0.490988 -1.97617 7.86383
RightShoulder  -4.96962e-017 0 -2.36833e-017
RightArm  -28.121 -16.6799 75.8835
RightForeArm  55.2746 13.5861 1.32213
RightHand  -0.327485 -1.78368 -10.3684
LeftUpLeg  -24.6053 0.46637 -4.83378
LeftLeg  14.3961 18.9075 3.50658
LeftFoot  11.0974 -0.377632 4.0473
LeftToes  -22.4104 1.49739e-006 1.00523e-007
115
root  -36.4263 34.3016 3.96384 132.379 85.0909 122.246
RightUpLeg  -5.56123 -11.5584 -7.94202
RightLeg  26.0981 -7.02488 -2.89245
RightFoot  -2.90843 0.000591664 0.630934
RightToes  -41.7292 -0.232442 -0.324681
Spine  -0.820187 1.13827 0.181252
Spine1  -1.69814 2.52152 0.966769
HEad  -67.8371 7.75304 8.30138
LeftShoulder1  -1.94126e-019 -3.10601e-018 -2.51263e-017
LeftArm  -15.2083 24.6729 -80.6108
LeftForeArm  36.4753 -13.6683 -2.35148
LeftHand  -0.492866 -1.96145 7.97335
RightShoulder  -4.96962e-017 0 -2.36833e-017
RightArm  -28.0042 -17.7145 75.6283
RightForeArm  55.1276 13.16 1.37638
RightHand  -0.319461 -1.70407 -9.89822
LeftUpLeg  -22.9802 1.86624 -5.73289
LeftLeg  14.3408 18.7754 3.46465
LeftFoot  9.65323 -0.282898 3.5109
LeftToes  -18.2815 1.49739e-006 1.00523e-007
116
root  -35.7765 34.3249 3.53211 114.033 85.3353 104.43
RightUpLeg  -7.56202 -11.6529 -9.68923
RightLeg  31.9159 -5.80595 -3.11973
RightFoot  0.470215 0.000982302 0.178165
RightToes  -52.3179 -0.323579 -0.373634
Spine  -0.858277 1.17367 -0.181189
Spine1  -1.7791 2.53537 0.274206
HEad  -66.967 7.89857 7.66064
LeftShoulder1  -1.94126e-019 -3.10601e-018 -2.51263e-017
LeftArm  -13.5494 23.7016 -80.5483
LeftForeArm  35.1471 -15.6899 -2.66047
LeftHand  -0.472641 -1.55926 8.06564
RightShoulder  -4.96962e-017 0 -2.36833e-017
RightArm  -26.78 -18.5367 75.2444
RightForeArm  55.34 12.9789 1.39544
RightHand  -0.321253 -1.43563 -9.30797
LeftUpLeg  -21.3236 3.51465 -6.88689
LeftLeg  14.4119 18.5467 3.44732
LeftFoot  8.02147 -0.192555 2.90732
LeftToes  -16.0947 1.49739e-006 1.00523e-007
117
root  -35.1897 34.2868 3.11945 98.5144 84.7716 89.4967
RightUpLeg  -10.1558 -11.913 -11.8186
RightLeg  38.5102 -4.41701 -3.08752
RightFoot  4.47252 0.0295591 -0.203893
RightToes  -61.6217 -0.40991 -0.402178
Spine  -0.819835 1.04305 -0.665258
Spine1  -1.71132 2.23343 -0.667715
HEad  -66.2962 8.23375 7.263
LeftShoulder1  -1.94126e-019 -3.10601e-018 -2.51263e-017
LeftArm  -11.5858 22.5922 -80.1201
LeftForeArm  33.5029 -17.9702 -2.94339
LeftHand  -0.446602 -1.23984 7.97216
RightShoulder  -4.96962e-017 0 -2.36833e-017
RightArm  -26.5096 -18.8709 75.1542
RightForeArm  56.5306 12.9299 1.3908
RightHand  -0.340128 -1.1116 -9.15246
LeftUpLeg  -19.7429 4.35117 -8.22419
LeftLeg  14.4883 18.9594 3.54673
LeftFoot  6.51778 -0.130091 2.44599
LeftToes  -13.9244 1.49739e-006 1.00523e-007
118
root  -34.6477 34.2293 2.77217 89.4712 84.0309 81.1778
RightUpLeg  -12.8661 -12.6179 -13.6673
RightLeg  45.2163 -3.53338 -3.15897
RightFoot  8.77623 0.0825637 -0.518426
RightToes  -63.2044 -0.425007 -0.405623
Spine  -0.653729 0.896344 -1.19061
Spine1  -1.39475 1.92457 -1.71273
HEad  -66.3007 8.36537 6.98498
LeftShoulder1  -1.94126e-019 -3.10601e-018 -2.51263e-017
LeftArm  -9.09415 20.8895 -79.303
LeftForeArm  32.0896 -20.0805 -3.19328
LeftHand  -0.434655 -1.20438 7.80152
RightShoulder  -4.96962e-017 0 -2.36833e-017
RightArm  -27.4578 -19.0443 75.5408
RightForeArm  57.0446 13.0288 1.37463
RightHand  -0.35337 -1.25181 -9.82097
LeftUpLeg  -18.2079 4.77343 -9.34115
LeftLeg  14.7408 19.3884 3.71033
LeftFoot  5.11275 -0.0820238 1.99859
LeftToes  -11.8753 1.49739e-006 1.00523e-007
